<svg width="19" height="20" viewBox="0 0 19 20" fill="none" xmlns="http://www.w3.org/2000/svg">
<path fill-rule="evenodd" clip-rule="evenodd" d="M2.16703 0.954915C2.27217 0.878525 2.3809 0.808245 2.49389 0.743588C2.53018 0.824425 2.58152 0.900151 2.6479 0.966529C3.93846 2.25703 4.95145 3.26842 5.84442 3.98311C6.74843 4.70666 7.59504 5.18158 8.57047 5.33608C9.16642 5.43047 9.77352 5.43047 10.3695 5.33608C11.3176 5.1859 12.1439 4.73301 13.0197 4.04333C13.8843 3.36245 14.8549 2.40277 16.0766 1.18187C16.1158 1.1427 16.1498 1.10027 16.1785 1.05545C16.548 1.34326 16.8754 1.68172 17.151 2.06107C18.106 3.3754 18.106 5.25027 18.106 9V11C18.106 14.7497 18.106 16.6246 17.151 17.9389C16.8426 18.3634 16.4694 18.7367 16.0449 19.0451C14.7306 20 12.8557 20 9.10596 20C5.35623 20 3.48136 20 2.16703 19.0451C1.74256 18.7367 1.36927 18.3634 1.06087 17.9389C0.105957 16.6246 0.105957 14.7497 0.105957 11V9C0.105957 5.25027 0.105957 3.3754 1.06087 2.06107C1.36927 1.6366 1.74256 1.26331 2.16703 0.954915ZM5.10596 7.25C4.69174 7.25 4.35596 7.58579 4.35596 8C4.35596 8.41421 4.69174 8.75 5.10596 8.75H13.106C13.5202 8.75 13.856 8.41421 13.856 8C13.856 7.58579 13.5202 7.25 13.106 7.25H5.10596ZM5.10596 11.25C4.69174 11.25 4.35596 11.5858 4.35596 12C4.35596 12.4142 4.69174 12.75 5.10596 12.75H13.106C13.5202 12.75 13.856 12.4142 13.856 12C13.856 11.5858 13.5202 11.25 13.106 11.25H5.10596ZM5.10596 15.25C4.69174 15.25 4.35596 15.5858 4.35596 16C4.35596 16.4142 4.69174 16.75 5.10596 16.75H8.10596C8.52017 16.75 8.85596 16.4142 8.85596 16C8.85596 15.5858 8.52017 15.25 8.10596 15.25H5.10596Z" fill="#017EFA"/>
<path d="M9.10596 0C11.8059 0 13.5338 0 14.7803 0.356472C13.66 1.47389 12.8219 2.28975 12.0916 2.8649C11.3221 3.47095 10.7322 3.75993 10.1348 3.85454C9.69433 3.92431 9.24561 3.92431 8.80512 3.85454C8.19059 3.75721 7.58414 3.45425 6.78172 2.81202C6.03459 2.21404 5.17497 1.37043 4.02256 0.219675C5.21469 0 6.80837 0 9.10596 0Z" fill="#017EFA"/>
</svg>
