<svg width="22" height="21" viewBox="0 0 22 21" fill="none" xmlns="http://www.w3.org/2000/svg">
<path d="M19.6531 8.88513H4.5991L11.1761 2.30813C11.4288 2.05372 11.5706 1.7097 11.5706 1.35113C11.5706 0.992553 11.4288 0.648532 11.1761 0.394127C11.0514 0.269192 10.9034 0.170072 10.7404 0.102442C10.5773 0.0348118 10.4026 0 10.2261 0C10.0496 0 9.87486 0.0348118 9.71185 0.102442C9.54883 0.170072 9.40076 0.269192 9.2761 0.394127L0.395103 9.27613C0.270168 9.40078 0.171048 9.54886 0.103418 9.71187C0.0357884 9.87488 0.000976562 10.0496 0.000976562 10.2261C0.000976562 10.4026 0.0357884 10.5774 0.103418 10.7404C0.171048 10.9034 0.270168 11.0515 0.395103 11.1761L9.2761 20.0571C9.39958 20.1875 9.54793 20.2918 9.7124 20.3639C9.87687 20.436 10.0541 20.4744 10.2337 20.4768C10.4132 20.4793 10.5915 20.4457 10.7578 20.3781C10.9242 20.3105 11.0753 20.2103 11.2023 20.0833C11.3293 19.9563 11.4295 19.8052 11.4971 19.6388C11.5647 19.4725 11.5983 19.2943 11.5958 19.1147C11.5934 18.9351 11.555 18.7579 11.4829 18.5934C11.4108 18.429 11.3065 18.2806 11.1761 18.1571L4.5991 11.5801H19.6531C20.0111 11.5801 20.3545 11.4379 20.6077 11.1847C20.8609 10.9315 21.0031 10.5882 21.0031 10.2301C21.0031 9.87208 20.8609 9.52871 20.6077 9.27553C20.3545 9.02236 20.0111 8.88013 19.6531 8.88013V8.88513Z" fill="white"/>
</svg>
