<svg width="22" height="21" viewBox="0 0 22 21" fill="none" xmlns="http://www.w3.org/2000/svg">
<path d="M19.653 8.885H4.59898L11.176 2.308C11.4287 2.0536 11.5705 1.70958 11.5705 1.351C11.5705 0.992431 11.4287 0.64841 11.176 0.394005C11.0513 0.26907 10.9033 0.16995 10.7402 0.10232C10.5772 0.0346897 10.4025 -0.00012207 10.226 -0.00012207C10.0495 -0.00012207 9.87474 0.0346897 9.71173 0.10232C9.54871 0.16995 9.40064 0.26907 9.27598 0.394005L0.394981 9.276C0.270046 9.40066 0.170926 9.54873 0.103296 9.71175C0.0356663 9.87476 0.000854492 10.0495 0.000854492 10.226C0.000854492 10.4025 0.0356663 10.5772 0.103296 10.7403C0.170926 10.9033 0.270046 11.0513 0.394981 11.176L9.27598 20.057C9.39946 20.1874 9.54781 20.2917 9.71228 20.3638C9.87675 20.4359 10.054 20.4743 10.2335 20.4767C10.4131 20.4792 10.5913 20.4456 10.7577 20.378C10.9241 20.3104 11.0752 20.2102 11.2022 20.0832C11.3292 19.9562 11.4294 19.8051 11.497 19.6387C11.5646 19.4724 11.5981 19.2941 11.5957 19.1146C11.5933 18.935 11.5549 18.7578 11.4828 18.5933C11.4107 18.4288 11.3064 18.2805 11.176 18.157L4.59898 11.58H19.653C20.011 11.58 20.3544 11.4378 20.6076 11.1846C20.8607 10.9314 21.003 10.588 21.003 10.23C21.003 9.87196 20.8607 9.52858 20.6076 9.27541C20.3544 9.02224 20.011 8.88 19.653 8.88V8.885Z" fill="white"/>
</svg>
