<svg width="22" height="21" viewBox="0 0 22 21" fill="none" xmlns="http://www.w3.org/2000/svg">
<path d="M19.6521 8.88513H4.59813L11.1751 2.30813C11.4278 2.05372 11.5696 1.7097 11.5696 1.35113C11.5696 0.992553 11.4278 0.648532 11.1751 0.394127C11.0505 0.269192 10.9024 0.170072 10.7394 0.102442C10.5764 0.0348118 10.4016 0 10.2251 0C10.0486 0 9.87389 0.0348118 9.71087 0.102442C9.54786 0.170072 9.39978 0.269192 9.27513 0.394127L0.394126 9.27613C0.269192 9.40078 0.170072 9.54886 0.102442 9.71187C0.0348118 9.87488 0 10.0496 0 10.2261C0 10.4026 0.0348118 10.5774 0.102442 10.7404C0.170072 10.9034 0.269192 11.0515 0.394126 11.1761L9.27513 20.0571C9.3986 20.1875 9.54696 20.2918 9.71142 20.3639C9.87589 20.436 10.0531 20.4744 10.2327 20.4768C10.4123 20.4793 10.5905 20.4457 10.7568 20.3781C10.9232 20.3105 11.0743 20.2103 11.2013 20.0833C11.3283 19.9563 11.4285 19.8052 11.4961 19.6388C11.5637 19.4725 11.5973 19.2943 11.5948 19.1147C11.5924 18.9351 11.554 18.7579 11.4819 18.5934C11.4098 18.429 11.3055 18.2806 11.1751 18.1571L4.59813 11.5801H19.6521C20.0102 11.5801 20.3535 11.4379 20.6067 11.1847C20.8599 10.9315 21.0021 10.5882 21.0021 10.2301C21.0021 9.87208 20.8599 9.52871 20.6067 9.27553C20.3535 9.02236 20.0102 8.88013 19.6521 8.88013V8.88513Z" fill="white"/>
</svg>
