<svg width="24" height="20" viewBox="0 0 24 20" fill="none" xmlns="http://www.w3.org/2000/svg">
<path d="M14.75 0.5C14.3358 0.5 14 0.835786 14 1.25C14 1.66421 14.3358 2 14.75 2H15.75C18.0972 2 20 3.90279 20 6.25V7.25C20 7.66421 20.3358 8 20.75 8C21.1642 8 21.5 7.66421 21.5 7.25V6.25C21.5 3.07436 18.9256 0.5 15.75 0.5H14.75Z" fill="#7E8287"/>
<path d="M7.75 0.5C4.57436 0.5 2 3.07436 2 6.25V7.25C2 7.66421 2.33579 8 2.75 8C3.16421 8 3.5 7.66421 3.5 7.25V6.25C3.5 3.90279 5.40279 2 7.75 2H8.75C9.16421 2 9.5 1.66421 9.5 1.25C9.5 0.835787 9.16421 0.5 8.75 0.5H7.75Z" fill="#7E8287"/>
<path d="M0.75 9.5C0.335786 9.5 0 9.83579 0 10.25C0 10.6642 0.335786 11 0.75 11H22.75C23.1642 11 23.5 10.6642 23.5 10.25C23.5 9.83579 23.1642 9.5 22.75 9.5H0.75Z" fill="#7E8287"/>
<path d="M3.5 13.25C3.5 12.8358 3.16421 12.5 2.75 12.5C2.33579 12.5 2 12.8358 2 13.25V14.25C2 17.4256 4.57436 20 7.75 20H8.75C9.16421 20 9.5 19.6642 9.5 19.25C9.5 18.8358 9.16421 18.5 8.75 18.5H7.75C5.40279 18.5 3.5 16.5972 3.5 14.25V13.25Z" fill="#7E8287"/>
<path d="M21.5 13.25C21.5 12.8358 21.1642 12.5 20.75 12.5C20.3358 12.5 20 12.8358 20 13.25V14.25C20 16.5972 18.0972 18.5 15.75 18.5H14.75C14.3358 18.5 14 18.8358 14 19.25C14 19.6642 14.3358 20 14.75 20H15.75C18.9256 20 21.5 17.4256 21.5 14.25V13.25Z" fill="#7E8287"/>
</svg>
