<svg width="22" height="21" viewBox="0 0 22 21" fill="none" xmlns="http://www.w3.org/2000/svg">
<path d="M5.56564 2.96556C2.89882 4.90311 1.56542 5.87189 1.04171 7.30291C0.999699 7.41771 0.961911 7.534 0.928424 7.65157C0.510978 9.11711 1.02029 10.6846 2.03893 13.8197C3.05756 16.9547 3.56688 18.5222 4.76602 19.4625C4.86222 19.5379 4.96115 19.6098 5.06261 19.678C5.48926 19.9647 5.95953 20.1546 6.52197 20.2805V16.8197C6.52197 14.1963 8.64862 12.0697 11.272 12.0697C13.8953 12.0697 16.022 14.1963 16.022 16.8197V20.2805C16.5844 20.1546 17.0547 19.9647 17.4813 19.678C17.5828 19.6098 17.6817 19.5379 17.7779 19.4625C18.9771 18.5222 19.4864 16.9547 20.505 13.8197C21.5237 10.6846 22.033 9.11711 21.6155 7.65157C21.582 7.534 21.5443 7.41771 21.5022 7.30291C20.9785 5.87189 19.6451 4.90312 16.9783 2.96557C14.3115 1.02801 12.9781 0.0592252 11.4553 0.00336104C11.3331 -0.00112035 11.2108 -0.00112035 11.0887 0.00336104C9.56586 0.0592251 8.23245 1.02801 5.56564 2.96556Z" fill="#A9ABB0"/>
<path d="M14.522 20.4732V16.8197C14.522 15.0247 13.0669 13.5697 11.272 13.5697C9.47705 13.5697 8.02197 15.0247 8.02197 16.8197V20.4732C8.89493 20.5279 9.95114 20.5279 11.272 20.5279C12.5928 20.5279 13.649 20.5279 14.522 20.4732Z" fill="#A9ABB0"/>
</svg>
