<svg width="51" height="47" viewBox="0 0 51 47" fill="none" xmlns="http://www.w3.org/2000/svg">
<path fill-rule="evenodd" clip-rule="evenodd" d="M0.630634 22.1116C0.630634 22.1116 2.93116 8.22323 6.93577 3.06836L22.4856 4.72985L37.0981 5.96531C37.0981 5.96531 30.4948 19.2998 29.6001 21.6855L0.630634 22.1116Z" fill="#D2715E"/>
<path fill-rule="evenodd" clip-rule="evenodd" d="M31.0912 34.2533L3.61272 33.6569L2.54766 22.5803L29.3871 21.9839L44.3831 26.3293L31.0912 34.2533Z" fill="url(#paint0_radial_59_2662)"/>
<path fill-rule="evenodd" clip-rule="evenodd" d="M14.9023 46.4377C14.9023 46.4377 37.0555 45.2449 45.9594 43.3704L47.1948 26.5425L35.0532 27.0963C35.0532 27.0963 33.3491 31.3991 31.006 31.2287C28.7055 31.0157 27.5978 27.3945 27.5978 27.3945L13.8373 28.0336C13.9225 27.991 14.0077 42.2627 14.9023 46.4377Z" fill="url(#paint1_radial_59_2662)"/>
<path fill-rule="evenodd" clip-rule="evenodd" d="M13.9225 27.9909L0.63058 22.1118C0.63058 22.1118 0.928796 34.5943 2.33467 40.09C2.33467 40.09 10.1735 45.2022 14.8597 46.4377C14.9023 46.4377 13.9225 36.9374 13.9225 27.9909Z" fill="url(#paint2_radial_59_2662)"/>
<path fill-rule="evenodd" clip-rule="evenodd" d="M13.9224 27.9907L0.630463 22.1116L29.6426 21.6855L47.2373 26.5422L35.0957 27.096L34.1158 26.9256L44.383 26.3292L29.387 21.9838L2.54756 22.5802L14.0928 27.5647L27.0438 27.096L27.6403 27.3942L13.9224 27.9907Z" fill="url(#paint3_radial_59_2662)"/>
<path fill-rule="evenodd" clip-rule="evenodd" d="M34.116 26.9258C34.116 26.9258 33.9456 30.7174 31.0912 31.2286C31.0912 31.2286 33.8178 31.9102 35.1384 27.0962L34.116 26.9258Z" fill="#D2715E"/>
<path fill-rule="evenodd" clip-rule="evenodd" d="M46.7261 26.5853C46.7261 26.5853 48.6432 22.7937 48.6006 22.5381C48.558 22.2825 35.3087 18.7039 34.6271 18.7465C33.9455 18.7891 29.6426 21.7286 29.6426 21.7286L46.7261 26.5853Z" fill="#D2715E"/>
<path fill-rule="evenodd" clip-rule="evenodd" d="M47.2374 26.5423L48.9841 22.9211L48.6007 22.4951L46.7262 26.5849L47.2374 26.5423Z" fill="url(#paint4_radial_59_2662)"/>
<path opacity="0.53" fill-rule="evenodd" clip-rule="evenodd" d="M34.1159 12.143H3.74047C3.74047 12.143 5.87059 6.00829 6.97825 4.13379L36.2886 7.58457L34.1159 12.143Z" fill="#791B40"/>
<path fill-rule="evenodd" clip-rule="evenodd" d="M6.93578 3.06836C6.93578 3.06836 10.7274 6.73215 12.3889 7.45639C12.3889 7.45639 31.7729 10.3107 38.6318 9.5439L37.6946 5.58189L22.7838 4.77245L6.93578 3.06836Z" fill="url(#paint5_radial_59_2662)"/>
<path fill-rule="evenodd" clip-rule="evenodd" d="M12.3889 7.45665L11.6647 8.01048C11.6647 8.01048 7.95829 5.70996 6.93584 4.17628C6.93584 4.17628 1.61055 15.2529 1.52535 22.5378L0.630698 22.1544C0.630698 22.1544 2.24959 9.16074 6.93584 3.11122C6.93584 3.06862 10.8126 6.6046 12.3889 7.45665Z" fill="#A23B58"/>
<path fill-rule="evenodd" clip-rule="evenodd" d="M38.6318 9.54405L37.652 10.0553C37.652 10.0553 21.0797 10.0127 11.6646 8.01037L12.3889 7.45654C12.3889 7.45654 30.1966 9.97007 38.6318 9.54405Z" fill="#D2715E"/>
<path fill-rule="evenodd" clip-rule="evenodd" d="M13.9226 27.9908C13.9226 27.9908 12.4315 23.7305 12.0907 23.3897C11.7499 23.0489 0.204687 18.0645 0.0342779 18.0645C-0.178733 18.0645 0.673311 22.0691 0.673311 22.0691L13.9226 27.9908Z" fill="#A23B58"/>
<path fill-rule="evenodd" clip-rule="evenodd" d="M0.0340242 18.1069H1.09908C1.09908 18.1069 8.76749 20.8761 12.8999 23.2618L12.0905 23.4322C12.0905 23.3896 5.2315 19.9814 0.0340242 18.1069Z" fill="url(#paint6_radial_59_2662)"/>
<path fill-rule="evenodd" clip-rule="evenodd" d="M12.9002 23.2622L14.1782 27.9911H13.9226L12.0907 23.39L12.9002 23.2622Z" fill="url(#paint7_radial_59_2662)"/>
<path opacity="0.5" fill-rule="evenodd" clip-rule="evenodd" d="M46.002 43.3702C46.002 43.3702 33.3917 41.4531 14.9449 46.4376C14.9023 46.4376 35.4792 45.7133 46.002 43.3702Z" fill="url(#paint8_linear_59_2662)"/>
<path opacity="0.5" fill-rule="evenodd" clip-rule="evenodd" d="M37.6946 5.5819L22.7838 4.77246C22.7838 4.77246 31.3895 8.39365 32.7953 8.73447C34.2012 9.11789 38.6318 9.2883 38.6318 9.2883L37.6946 5.5819Z" fill="url(#paint9_linear_59_2662)"/>
<path fill-rule="evenodd" clip-rule="evenodd" d="M25.1694 42.9867V39.2803H16.1804L16.3934 43.6683L25.1694 42.9867Z" fill="#FFE5E1"/>
<path d="M20.5678 40.8143L23.2517 40.6865V40.3457L20.5678 40.4735V40.8143Z" fill="#5A4153"/>
<path d="M23.21 42.4757H23.2952V40.8994H23.21V42.4757Z" fill="#5A4153"/>
<path d="M22.8265 42.4761H23.0396V40.9424H22.8265V42.4761Z" fill="#5A4153"/>
<path d="M22.6987 42.4761H22.7839L22.7413 40.9424H22.6987V42.4761Z" fill="#5A4153"/>
<path d="M22.4431 42.4761H22.5283L22.4857 40.9424H22.4431V42.4761Z" fill="#5A4153"/>
<path d="M22.1875 42.5185H22.2727L22.2301 40.9849H22.1875V42.5185Z" fill="#5A4153"/>
<path d="M21.9318 42.5185H22.1448V40.9849H21.8892L21.9318 42.5185Z" fill="#5A4153"/>
<path d="M21.506 42.5185H21.719V40.9849H21.506V42.5185Z" fill="#5A4153"/>
<path d="M21.4205 42.5611H21.4631V40.9849H21.3779L21.4205 42.5611Z" fill="#5A4153"/>
<path d="M21.8041 42.5185H21.8467V40.9849H21.8041V42.5185Z" fill="#5A4153"/>
<path d="M17.3728 40.9847L20.0142 40.8569V40.5161L17.3302 40.6013L17.3728 40.9847Z" fill="#5A4153"/>
<path d="M19.9722 42.6035H20.0574V41.0698H19.9722V42.6035Z" fill="#5A4153"/>
<path d="M19.5887 42.6461L19.8018 42.6035V41.0698H19.5887V42.6461Z" fill="#5A4153"/>
<path d="M19.4612 42.646H19.5464V41.1123H19.4612V42.646Z" fill="#5A4153"/>
<path d="M19.2053 42.646H19.2905V41.1123H19.2053V42.646Z" fill="#5A4153"/>
<path d="M18.9497 42.646H19.0349V41.1123H18.9497V42.646Z" fill="#5A4153"/>
<path d="M18.6942 42.6886L18.9072 42.646V41.1123H18.6942V42.6886Z" fill="#5A4153"/>
<path d="M18.2681 42.689H18.5237L18.4811 41.1553H18.2681V42.689Z" fill="#5A4153"/>
<path d="M18.1829 42.689H18.2681L18.2255 41.1553H18.1829V42.689Z" fill="#5A4153"/>
<path d="M18.5665 42.689H18.6091V41.1553H18.5665V42.689Z" fill="#5A4153"/>
<path opacity="0.5" fill-rule="evenodd" clip-rule="evenodd" d="M45.0222 33.4014L44.9796 36.1705L38.8875 36.4687L38.7597 33.6996L45.0222 33.4014Z" fill="#FFFFCE"/>
<g opacity="0.5">
<path opacity="0.5" d="M39.1857 36.2555L44.8518 36.0425V33.6567L39.1857 33.8697V36.2555ZM44.4258 35.659L39.6117 35.8295V34.2958L44.4258 34.1254V35.659Z" fill="#C1748D"/>
</g>
<g opacity="0.5">
<path opacity="0.5" fill-rule="evenodd" clip-rule="evenodd" d="M42.594 33.9552C42.5514 34.296 42.381 34.4664 41.9975 34.3812C41.7419 34.3386 41.6141 34.1256 41.6567 33.87C41.6993 33.6143 41.9549 33.4013 42.2532 33.4439C42.5088 33.4439 42.6366 33.8274 42.594 33.9552Z" fill="#E3D9D2"/>
<path opacity="0.5" fill-rule="evenodd" clip-rule="evenodd" d="M33.4343 37.619C33.3917 37.2782 33.0083 37.0652 32.7101 37.0226C32.4545 36.98 32.1989 37.0652 31.9859 37.2356C31.7728 37.3634 31.5598 37.619 31.6876 37.9172C31.7302 38.0024 31.8155 38.2154 31.9007 38.258C32.0285 38.3432 32.2415 38.3006 32.3693 38.258C32.6249 38.2154 32.7101 38.1302 32.8805 37.9598C33.0509 37.832 33.4343 37.9172 33.4343 37.619Z" fill="#E3D9D2"/>
<path opacity="0.5" fill-rule="evenodd" clip-rule="evenodd" d="M42.3382 32.5494C42.5512 32.6346 42.8495 32.9754 42.5512 33.1033C42.3808 33.1885 41.8696 33.0606 41.7418 32.9754C41.188 32.5494 42.0826 32.166 42.466 32.6346L42.3382 32.5494Z" fill="#E3D9D2"/>
<path opacity="0.5" fill-rule="evenodd" clip-rule="evenodd" d="M42.0826 35.3608C41.8696 34.9774 41.4862 35.4034 41.7418 35.6164C41.9122 35.7443 42.0826 35.6164 42.1252 35.446L42.0826 35.3608Z" fill="#E3D9D2"/>
<path opacity="0.5" fill-rule="evenodd" clip-rule="evenodd" d="M41.5287 33.9553C41.4009 33.6997 41.1453 33.9979 41.3157 34.1258C41.4435 34.211 41.5713 34.1258 41.5713 33.9979L41.5287 33.9553Z" fill="#E3D9D2"/>
<path opacity="0.5" fill-rule="evenodd" clip-rule="evenodd" d="M18.0976 31.3136C18.4384 31.7396 17.842 32.2934 17.5864 31.7396C17.4586 31.4414 17.7142 31.1006 17.9698 31.3136H18.0976Z" fill="#E3D9D2"/>
<path opacity="0.5" fill-rule="evenodd" clip-rule="evenodd" d="M17.1177 32.5918C17.1603 32.5066 17.2029 32.5492 17.2455 32.5918C17.3307 32.677 17.2882 32.7196 17.203 32.7622C17.0751 32.9326 16.9899 32.9326 16.8195 32.8048C16.6917 32.7196 16.4787 32.464 16.6917 32.3788C16.7769 32.3362 17.0325 32.4214 17.0751 32.464L17.1177 32.5918Z" fill="#E3D9D2"/>
<path opacity="0.5" fill-rule="evenodd" clip-rule="evenodd" d="M17.6289 32.7625C17.6715 32.5495 17.3307 32.8051 17.4585 32.9329C17.6289 33.0607 17.6715 32.8477 17.6289 32.7625Z" fill="#E3D9D2"/>
<path opacity="0.5" fill-rule="evenodd" clip-rule="evenodd" d="M16.99 31.9954C16.9048 32.1232 16.6918 31.9528 16.777 31.825C16.8622 31.7398 16.99 31.9102 16.99 31.9954Z" fill="#E3D9D2"/>
<path opacity="0.5" fill-rule="evenodd" clip-rule="evenodd" d="M20.4832 34.5944C20.4406 34.424 20.2276 34.5944 20.185 34.6796C20.1424 34.85 20.2702 35.063 20.4406 35.063C20.6962 35.1056 20.7815 34.6796 20.5258 34.5944H20.4832Z" fill="#E3D9D2"/>
<path opacity="0.5" fill-rule="evenodd" clip-rule="evenodd" d="M18.0124 34.9349C18.1828 35.1479 17.6289 35.2332 17.6289 34.9349C17.6289 34.7645 17.9272 34.7645 18.0124 34.9349Z" fill="#E3D9D2"/>
<path opacity="0.5" fill-rule="evenodd" clip-rule="evenodd" d="M20.2276 30.4619C20.3554 30.3341 20.185 30.1211 20.0146 30.1211C19.8016 30.1637 19.8016 30.4619 19.8868 30.5897C20.0572 30.9305 20.4832 30.6749 20.3128 30.3767L20.2276 30.4619Z" fill="#E3D9D2"/>
<path opacity="0.5" fill-rule="evenodd" clip-rule="evenodd" d="M17.0324 29.7803C17.2028 30.249 16.4786 30.0785 16.436 29.6951C16.3934 29.2691 16.9898 29.3543 17.0324 29.7803Z" fill="#E3D9D2"/>
<path opacity="0.5" fill-rule="evenodd" clip-rule="evenodd" d="M31.7302 36.7244C32.0284 37.1504 31.2616 37.3208 31.1764 36.8096C31.3468 36.5966 31.645 36.554 31.8154 36.767L31.7302 36.7244Z" fill="#E3D9D2"/>
<path opacity="0.5" fill-rule="evenodd" clip-rule="evenodd" d="M35.8201 41.7086C35.181 40.8566 33.903 40.5158 32.9657 41.1548C32.7101 41.3252 32.3693 41.6234 32.6675 41.8791C32.9231 42.0921 34.116 41.8791 34.4142 41.8791C34.9254 41.8791 35.4366 41.8791 35.8201 41.7086Z" fill="#E3D9D2"/>
<path opacity="0.5" fill-rule="evenodd" clip-rule="evenodd" d="M38.1631 41.283C38.1205 41.6664 37.4388 41.5386 37.5241 41.1978C37.6093 40.9848 37.9501 40.9422 38.0353 41.1552L38.1631 41.283Z" fill="#E3D9D2"/>
<path opacity="0.5" fill-rule="evenodd" clip-rule="evenodd" d="M29.6428 41.4107C29.515 40.8143 28.876 41.7515 29.515 41.6663C29.515 41.6237 29.5576 41.5811 29.5576 41.5385L29.6428 41.4107Z" fill="#E3D9D2"/>
<path opacity="0.5" fill-rule="evenodd" clip-rule="evenodd" d="M26.4904 33.1459C26.5756 33.5719 26.0644 33.4867 26.0644 33.1459C26.0644 32.8903 26.4052 32.7625 26.4904 33.0607V33.1459Z" fill="#E3D9D2"/>
<path opacity="0.5" fill-rule="evenodd" clip-rule="evenodd" d="M17.5863 36.5966C17.5437 36.5114 17.5011 36.4688 17.4159 36.4688C17.1603 36.8096 17.7567 37.0652 17.5863 36.6392V36.5966Z" fill="#E3D9D2"/>
<path opacity="0.5" fill-rule="evenodd" clip-rule="evenodd" d="M36.161 8.22346C36.8 9.71454 34.0735 8.64948 33.69 8.01045C33.264 7.28621 34.3291 7.20101 34.9255 7.28621C35.5645 7.37141 36.1184 7.84004 36.161 8.22346Z" fill="#E3D9D2"/>
<path opacity="0.5" fill-rule="evenodd" clip-rule="evenodd" d="M33.5623 8.5642C33.4771 8.22338 32.7954 7.96777 32.8806 8.43639C32.9232 8.73461 33.3918 8.90502 33.477 8.6068L33.5623 8.5642Z" fill="#E3D9D2"/>
<path opacity="0.5" fill-rule="evenodd" clip-rule="evenodd" d="M19.7163 6.30646C20.3554 7.1159 17.6288 7.1159 17.501 6.30646C17.3732 5.45442 19.5033 5.75263 19.8015 6.26386L19.7163 6.30646Z" fill="#E3D9D2"/>
<path opacity="0.5" fill-rule="evenodd" clip-rule="evenodd" d="M17.7993 5.36914C17.7567 4.85791 16.9473 5.07092 17.1177 5.41174C17.2455 5.66735 17.6715 5.49694 17.7993 5.32653V5.36914Z" fill="#E3D9D2"/>
<path opacity="0.5" fill-rule="evenodd" clip-rule="evenodd" d="M15.6693 5.96556C15.4137 5.96556 15.1581 5.92296 14.9451 5.79516C14.9877 5.32653 15.6267 5.45434 15.7971 5.79516C15.7545 5.88036 15.7119 5.83776 15.6693 5.88036V5.96556Z" fill="#E3D9D2"/>
<path opacity="0.5" fill-rule="evenodd" clip-rule="evenodd" d="M22.9116 6.90271C22.9116 6.7323 22.869 6.60449 22.656 6.60449C22.4004 6.8175 22.443 7.20092 22.8264 7.11572L22.9116 6.90271Z" fill="#E3D9D2"/>
<path opacity="0.5" fill-rule="evenodd" clip-rule="evenodd" d="M36.9703 36.9375C37.9075 37.7469 35.9052 37.4913 36.7998 37.0653L36.9703 36.9375Z" fill="#E3D9D2"/>
<path opacity="0.5" fill-rule="evenodd" clip-rule="evenodd" d="M40.975 39.0674C41.188 39.323 41.1028 39.7916 40.7194 39.6212C40.4212 39.4934 40.4638 38.9396 40.8472 39.11L40.975 39.0674Z" fill="#E3D9D2"/>
<path opacity="0.5" fill-rule="evenodd" clip-rule="evenodd" d="M39.1003 40.3455C39.0151 40.0899 38.7169 40.0899 38.7169 40.3455C38.7169 40.5585 38.9299 40.5585 39.0151 40.3881L39.1003 40.3455Z" fill="#E3D9D2"/>
<path opacity="0.5" fill-rule="evenodd" clip-rule="evenodd" d="M26.2773 29.056C26.1921 29.0134 26.1069 28.9282 26.0643 28.843C26.2347 28.7152 26.2347 28.8004 26.2773 28.9282V29.056Z" fill="#E3D9D2"/>
</g>
<path fill-rule="evenodd" clip-rule="evenodd" d="M14.9023 46.4375L13.9225 27.9907C13.9225 27.9907 13.5391 41.4104 14.9023 46.4375Z" fill="#DF7668"/>
<path fill-rule="evenodd" clip-rule="evenodd" d="M12.8999 23.2622L12.2183 23.7308L11.6644 23.2622H12.8999Z" fill="#FFDB92"/>
<path fill-rule="evenodd" clip-rule="evenodd" d="M12.3889 7.45654L11.6647 8.01037L11.1535 6.60449L12.3889 7.45654Z" fill="#DF7668"/>
<path d="M39.5328 1.14068L39.5328 4.88489C31.202 5.68053 25.4687 12.7009 25.4687 21.2424C25.4687 23.3017 25.8431 25.244 26.5217 27.0693C29.0491 21.8976 33.4485 18.247 39.486 17.8726L39.486 21.6168C39.486 22.8571 40.1881 23.1613 41.0539 22.2487L49.8762 13.0987C50.7421 12.2095 50.7421 10.7118 49.8996 9.82257L41.1241 0.55565C40.2349 -0.380403 39.5328 -0.0995871 39.5328 1.14068Z" fill="url(#paint10_linear_59_2662)"/>
<path d="M40.4922 0.906683L49.2677 10.1736C49.9229 10.8756 49.9229 11.9989 49.2677 12.6775L40.4454 21.8509C40.422 21.8743 40.3986 21.8977 40.3752 21.9211C40.3986 22.0849 40.4454 22.1551 40.4688 22.2019C40.539 22.1785 40.7028 22.1083 40.9602 21.8509L49.7825 12.6775C50.4377 11.9989 50.4377 10.8756 49.7825 10.1736L41.007 0.906683C40.7496 0.649269 40.5858 0.579065 40.539 0.555664C40.5156 0.602466 40.4688 0.672673 40.4454 0.836482C40.4454 0.883285 40.4688 0.883282 40.4922 0.906683Z" fill="#E3BEDA"/>
<path d="M30.3272 24.293H23.6787H23.1672L26.4915 27.1058L30.3272 24.293Z" fill="#A64450"/>
<defs>
<radialGradient id="paint0_radial_59_2662" cx="0" cy="0" r="1" gradientUnits="userSpaceOnUse" gradientTransform="translate(39.5647 29.0278) rotate(180) scale(19.4797)">
<stop offset="0.0223464" stop-color="#AC484D"/>
<stop offset="1" stop-color="#9F3E54"/>
</radialGradient>
<radialGradient id="paint1_radial_59_2662" cx="0" cy="0" r="1" gradientUnits="userSpaceOnUse" gradientTransform="translate(30.478 27.6741) rotate(180) scale(13.785)">
<stop offset="0.0223464" stop-color="#FFA874"/>
<stop offset="1" stop-color="#F49372"/>
</radialGradient>
<radialGradient id="paint2_radial_59_2662" cx="0" cy="0" r="1" gradientUnits="userSpaceOnUse" gradientTransform="translate(7.73455 23.5012) rotate(180) scale(13.2224)">
<stop offset="0.0223464" stop-color="#BD4D4D"/>
<stop offset="1" stop-color="#9F3E54"/>
</radialGradient>
<radialGradient id="paint3_radial_59_2662" cx="0" cy="0" r="1" gradientUnits="userSpaceOnUse" gradientTransform="translate(23.803 22.0608) rotate(180) scale(13.1732)">
<stop stop-color="#FFCF84"/>
<stop offset="0.9777" stop-color="#FFB88B"/>
</radialGradient>
<radialGradient id="paint4_radial_59_2662" cx="0" cy="0" r="1" gradientUnits="userSpaceOnUse" gradientTransform="translate(47.854 22.7403) rotate(180) scale(2.19708)">
<stop offset="0.0223464" stop-color="#FFA874"/>
<stop offset="1" stop-color="#F49372"/>
</radialGradient>
<radialGradient id="paint5_radial_59_2662" cx="0" cy="0" r="1" gradientUnits="userSpaceOnUse" gradientTransform="translate(22.7066 3.44296) rotate(180) scale(9.33061)">
<stop offset="0.0223464" stop-color="#FFA874"/>
<stop offset="1" stop-color="#F49372"/>
</radialGradient>
<radialGradient id="paint6_radial_59_2662" cx="0" cy="0" r="1" gradientUnits="userSpaceOnUse" gradientTransform="translate(6.42415 18.4) rotate(180) scale(4.47924)">
<stop stop-color="#FFCF84"/>
<stop offset="0.9777" stop-color="#FFB88B"/>
</radialGradient>
<radialGradient id="paint7_radial_59_2662" cx="0" cy="0" r="1" gradientUnits="userSpaceOnUse" gradientTransform="translate(13.1311 23.5217) rotate(180) scale(2.53491)">
<stop offset="0.0223464" stop-color="#FFA874"/>
<stop offset="1" stop-color="#F49372"/>
</radialGradient>
<linearGradient id="paint8_linear_59_2662" x1="45.9815" y1="44.7135" x2="14.9068" y2="44.7135" gradientUnits="userSpaceOnUse">
<stop stop-color="#D3B8D6"/>
<stop offset="1" stop-color="white"/>
</linearGradient>
<linearGradient id="paint9_linear_59_2662" x1="38.6423" y1="7.01717" x2="22.7982" y2="7.01717" gradientUnits="userSpaceOnUse">
<stop stop-color="#D3B8D6"/>
<stop offset="1" stop-color="white"/>
</linearGradient>
<linearGradient id="paint10_linear_59_2662" x1="41.3329" y1="19.9877" x2="25.995" y2="7.35643" gradientUnits="userSpaceOnUse">
<stop offset="0.00565" stop-color="#01A0E0"/>
<stop offset="1" stop-color="#01ACEA"/>
</linearGradient>
</defs>
</svg>
