<svg width="17" height="17" viewBox="0 0 17 17" fill="none" xmlns="http://www.w3.org/2000/svg">
<path d="M4.51486 15.9487L4.39753 16.6895L4.39753 16.6895L4.51486 15.9487ZM1.0513 12.4851L1.79206 12.3678L1.0513 12.4851ZM15.9487 12.4851L16.6895 12.6025L16.6895 12.6025L15.9487 12.4851ZM12.4851 15.9487L12.6025 16.6895H12.6025L12.4851 15.9487ZM15.7666 7.21623C15.5179 6.88504 15.0477 6.81822 14.7165 7.06699C14.3853 7.31576 14.3185 7.78591 14.5673 8.1171L15.7666 7.21623ZM2.4327 8.1171C2.68147 7.78591 2.61465 7.31576 2.28346 7.06699C1.95227 6.81822 1.48212 6.88504 1.23335 7.21623L2.4327 8.1171ZM9.25 1C9.25 0.585786 8.91421 0.25 8.5 0.25C8.08579 0.25 7.75 0.585786 7.75 1H9.25ZM5.75435 8.86736C5.497 8.54279 5.02526 8.4883 4.7007 8.74565C4.37613 9.003 4.32163 9.47473 4.57898 9.7993L5.75435 8.86736ZM6.33154 10.8025L5.74385 11.2684L6.33154 10.8025ZM10.6685 10.8025L10.0808 10.3365L10.6685 10.8025ZM12.421 9.7993C12.6784 9.47473 12.6239 9.003 12.2993 8.74565C11.9747 8.4883 11.503 8.54279 11.2456 8.86736L12.421 9.7993ZM8.29111 12.6501L8.1731 13.3907H8.17311L8.29111 12.6501ZM8.70889 12.6501L8.82689 13.3907H8.8269L8.70889 12.6501ZM15.25 10.1667V11H16.75V10.1667H15.25ZM11 15.25H6V16.75H11V15.25ZM1.75 11V10.1667H0.25V11H1.75ZM6 15.25C5.19717 15.25 4.88307 15.2477 4.63218 15.2079L4.39753 16.6895C4.79441 16.7523 5.25449 16.75 6 16.75V15.25ZM0.25 11C0.25 11.7455 0.247672 12.2056 0.310532 12.6025L1.79206 12.3678C1.75233 12.1169 1.75 11.8028 1.75 11H0.25ZM4.63218 15.2079C3.17022 14.9764 2.02362 13.8298 1.79206 12.3678L0.310532 12.6025C0.643742 14.7063 2.29373 16.3563 4.39753 16.6895L4.63218 15.2079ZM15.25 11C15.25 11.8028 15.2477 12.1169 15.2079 12.3678L16.6895 12.6025C16.7523 12.2056 16.75 11.7455 16.75 11H15.25ZM11 16.75C11.7455 16.75 12.2056 16.7523 12.6025 16.6895L12.3678 15.2079C12.1169 15.2477 11.8028 15.25 11 15.25V16.75ZM15.2079 12.3678C14.9764 13.8298 13.8298 14.9764 12.3678 15.2079L12.6025 16.6895C14.7063 16.3563 16.3563 14.7063 16.6895 12.6025L15.2079 12.3678ZM16.75 10.1667C16.75 9.06068 16.3839 8.03804 15.7666 7.21623L14.5673 8.1171C14.9962 8.68806 15.25 9.39664 15.25 10.1667H16.75ZM1.75 10.1667C1.75 9.39664 2.00384 8.68806 2.4327 8.1171L1.23335 7.21623C0.616073 8.03804 0.25 9.06068 0.25 10.1667H1.75ZM7.75 1V11.8333H9.25V1H7.75ZM4.57898 9.7993L5.74385 11.2684L6.91922 10.3365L5.75435 8.86736L4.57898 9.7993ZM11.2561 11.2684L12.421 9.7993L11.2456 8.86736L10.0808 10.3365L11.2561 11.2684ZM5.74385 11.2684C6.19695 11.8399 6.57587 12.3196 6.91604 12.6611C7.25955 13.006 7.65655 13.3084 8.1731 13.3907L8.40912 11.9094C8.35955 11.9015 8.24124 11.866 7.97874 11.6025C7.71289 11.3356 7.39509 10.9367 6.91922 10.3365L5.74385 11.2684ZM10.0808 10.3365C9.60491 10.9367 9.28711 11.3356 9.02126 11.6025C8.75876 11.866 8.64045 11.9015 8.59088 11.9094L8.8269 13.3907C9.34345 13.3084 9.74045 13.006 10.084 12.6611C10.4241 12.3196 10.803 11.8399 11.2561 11.2684L10.0808 10.3365ZM8.17311 13.3907C8.28134 13.408 8.39057 13.4167 8.5 13.4167V11.9167C8.4699 11.9167 8.43959 11.9143 8.40912 11.9094L8.17311 13.3907ZM8.5 13.4167C8.60943 13.4167 8.71866 13.408 8.82689 13.3907L8.59088 11.9094C8.56041 11.9143 8.5301 11.9167 8.5 11.9167V13.4167ZM7.75 11.8333V12.6667H9.25V11.8333H7.75Z" fill="white"/>
</svg>
