<svg width="49" height="44" viewBox="0 0 49 44" fill="none" xmlns="http://www.w3.org/2000/svg">
<path fill-rule="evenodd" clip-rule="evenodd" d="M0.630634 19.0432C0.630634 19.0432 2.93116 5.15487 6.93577 0L22.4856 1.66149L37.0981 2.89695C37.0981 2.89695 30.4948 16.2314 29.6001 18.6172L0.630634 19.0432Z" fill="#D2715E"/>
<path fill-rule="evenodd" clip-rule="evenodd" d="M31.0909 31.185L3.61248 30.5885L2.54742 19.512L29.3868 18.9155L44.3828 23.261L31.0909 31.185Z" fill="url(#paint0_radial_59_2744)"/>
<path fill-rule="evenodd" clip-rule="evenodd" d="M14.9023 43.3694C14.9023 43.3694 37.0555 42.1765 45.9594 40.302L47.1948 23.4741L35.0532 24.028C35.0532 24.028 33.3491 28.3308 31.006 28.1604C28.7055 27.9474 27.5978 24.3262 27.5978 24.3262L13.8373 24.9652C13.9225 24.9226 14.0077 39.1943 14.9023 43.3694Z" fill="url(#paint1_radial_59_2744)"/>
<path fill-rule="evenodd" clip-rule="evenodd" d="M13.9227 24.9226L0.630824 19.0435C0.630824 19.0435 0.92904 31.5259 2.33491 37.0216C2.33491 37.0216 10.1737 42.1339 14.86 43.3693C14.9026 43.3693 13.9227 33.869 13.9227 24.9226Z" fill="url(#paint2_radial_59_2744)"/>
<path fill-rule="evenodd" clip-rule="evenodd" d="M13.9224 24.9223L0.630463 19.0432L29.6426 18.6172L47.2373 23.4738L35.0957 24.0277L34.1158 23.8573L44.383 23.2608L29.387 18.9154L2.54756 19.5118L14.0928 24.4963L27.0438 24.0277L27.6403 24.3259L13.9224 24.9223Z" fill="url(#paint3_radial_59_2744)"/>
<path fill-rule="evenodd" clip-rule="evenodd" d="M34.1157 23.8574C34.1157 23.8574 33.9453 27.649 31.091 28.1602C31.091 28.1602 33.8175 28.8419 35.1382 24.0278L34.1157 23.8574Z" fill="#D2715E"/>
<path fill-rule="evenodd" clip-rule="evenodd" d="M46.7264 23.5164C46.7264 23.5164 48.6435 19.7248 48.6009 19.4692C48.5583 19.2136 35.309 15.635 34.6273 15.6776C33.9457 15.7202 29.6429 18.6598 29.6429 18.6598L46.7264 23.5164Z" fill="#D2715E"/>
<path fill-rule="evenodd" clip-rule="evenodd" d="M47.2377 23.474L48.9844 19.8528L48.601 19.4268L46.7265 23.5166L47.2377 23.474Z" fill="url(#paint4_radial_59_2744)"/>
<path opacity="0.53" fill-rule="evenodd" clip-rule="evenodd" d="M34.1159 9.07416H3.74047C3.74047 9.07416 5.87059 2.93944 6.97825 1.06494L36.2886 4.51572L34.1159 9.07416Z" fill="#791B40"/>
<path fill-rule="evenodd" clip-rule="evenodd" d="M6.93578 0C6.93578 0 10.7274 3.66379 12.3889 4.38803C12.3889 4.38803 31.7729 7.24238 38.6318 6.47554L37.6946 2.51353L22.7838 1.70409L6.93578 0Z" fill="url(#paint5_radial_59_2744)"/>
<path fill-rule="evenodd" clip-rule="evenodd" d="M12.3892 4.3878L11.6649 4.94163C11.6649 4.94163 7.95853 2.64111 6.93608 1.10743C6.93608 1.10743 1.6108 12.184 1.52559 19.469L0.630942 19.0856C0.630942 19.0856 2.24984 6.09189 6.93608 0.0423739C6.93608 -0.00022833 10.8129 3.53576 12.3892 4.3878Z" fill="#A23B58"/>
<path fill-rule="evenodd" clip-rule="evenodd" d="M38.6318 6.47569L37.652 6.98692C37.652 6.98692 21.0797 6.94432 11.6646 4.94201L12.3889 4.38818C12.3889 4.38818 30.1966 6.90171 38.6318 6.47569Z" fill="#D2715E"/>
<path fill-rule="evenodd" clip-rule="evenodd" d="M13.9224 24.9224C13.9224 24.9224 12.4313 20.6622 12.0905 20.3214C11.7497 19.9806 0.204443 14.9961 0.0340338 14.9961C-0.178977 14.9961 0.673067 19.0007 0.673067 19.0007L13.9224 24.9224Z" fill="#A23B58"/>
<path fill-rule="evenodd" clip-rule="evenodd" d="M0.0340242 15.0386H1.09908C1.09908 15.0386 8.76749 17.8077 12.8999 20.1934L12.0905 20.3639C12.0905 20.3213 5.2315 16.9131 0.0340242 15.0386Z" fill="url(#paint6_radial_59_2744)"/>
<path fill-rule="evenodd" clip-rule="evenodd" d="M12.9002 20.1934L14.1782 24.9222H13.9226L12.0907 20.3212L12.9002 20.1934Z" fill="url(#paint7_radial_59_2744)"/>
<path opacity="0.5" fill-rule="evenodd" clip-rule="evenodd" d="M46.002 40.3019C46.002 40.3019 33.3917 38.3848 14.9449 43.3692C14.9023 43.3692 35.4792 42.645 46.002 40.3019Z" fill="url(#paint8_linear_59_2744)"/>
<path opacity="0.5" fill-rule="evenodd" clip-rule="evenodd" d="M37.6946 2.51354L22.7838 1.7041C22.7838 1.7041 31.3895 5.32529 32.7953 5.66611C34.2012 6.04953 38.6318 6.21994 38.6318 6.21994L37.6946 2.51354Z" fill="url(#paint9_linear_59_2744)"/>
<path fill-rule="evenodd" clip-rule="evenodd" d="M25.1694 39.9183V36.2119H16.1804L16.3934 40.5999L25.1694 39.9183Z" fill="#FFE5E1"/>
<path d="M20.568 37.7455L23.252 37.6177V37.2769L20.568 37.4047V37.7455Z" fill="#5A4153"/>
<path d="M23.2102 39.4068H23.2954V37.8306H23.2102V39.4068Z" fill="#5A4153"/>
<path d="M22.8265 39.4072H23.0396V37.8735H22.8265V39.4072Z" fill="#5A4153"/>
<path d="M22.699 39.4072H22.7842L22.7416 37.8735H22.699V39.4072Z" fill="#5A4153"/>
<path d="M22.4431 39.4072H22.5283L22.4857 37.8735H22.4431V39.4072Z" fill="#5A4153"/>
<path d="M22.1877 39.4497H22.2729L22.2303 37.916H22.1877V39.4497Z" fill="#5A4153"/>
<path d="M21.932 39.4497H22.145V37.916H21.8894L21.932 39.4497Z" fill="#5A4153"/>
<path d="M21.5062 39.4497H21.7192V37.916H21.5062V39.4497Z" fill="#5A4153"/>
<path d="M21.4208 39.4923H21.4634V37.916H21.3782L21.4208 39.4923Z" fill="#5A4153"/>
<path d="M21.8041 39.4497H21.8467V37.916H21.8041V39.4497Z" fill="#5A4153"/>
<path d="M17.3728 37.9159L20.0142 37.7881V37.4473L17.3302 37.5325L17.3728 37.9159Z" fill="#5A4153"/>
<path d="M19.9724 39.5347H20.0576V38.001H19.9724V39.5347Z" fill="#5A4153"/>
<path d="M19.5887 39.5773L19.8018 39.5347V38.001H19.5887V39.5773Z" fill="#5A4153"/>
<path d="M19.4612 39.5771H19.5464V38.0435H19.4612V39.5771Z" fill="#5A4153"/>
<path d="M19.2053 39.5771H19.2905V38.0435H19.2053V39.5771Z" fill="#5A4153"/>
<path d="M18.9499 39.5771H19.0352V38.0435H18.9499V39.5771Z" fill="#5A4153"/>
<path d="M18.6942 39.6197L18.9072 39.5771V38.0435H18.6942V39.6197Z" fill="#5A4153"/>
<path d="M18.2683 39.6201H18.5239L18.4813 38.0864H18.2683V39.6201Z" fill="#5A4153"/>
<path d="M18.1833 39.6201H18.2686L18.2259 38.0864H18.1833V39.6201Z" fill="#5A4153"/>
<path d="M18.5668 39.6201H18.6094V38.0864H18.5668V39.6201Z" fill="#5A4153"/>
<path opacity="0.5" fill-rule="evenodd" clip-rule="evenodd" d="M45.022 30.333L44.9794 33.1022L38.8873 33.4004L38.7594 30.6312L45.022 30.333Z" fill="#FFFFCE"/>
<g opacity="0.5">
<path opacity="0.5" d="M39.186 33.1871L44.8521 32.9741V30.5884L39.186 30.8014V33.1871ZM44.426 32.5907L39.612 32.7611V31.2274L44.426 31.057V32.5907Z" fill="#C1748D"/>
</g>
<g opacity="0.5">
<path opacity="0.5" fill-rule="evenodd" clip-rule="evenodd" d="M42.594 30.8868C42.5514 31.2276 42.381 31.398 41.9975 31.3128C41.7419 31.2702 41.6141 31.0572 41.6567 30.8016C41.6993 30.546 41.9549 30.333 42.2532 30.3756C42.5088 30.3756 42.6366 30.759 42.594 30.8868Z" fill="#E3D9D2"/>
<path opacity="0.5" fill-rule="evenodd" clip-rule="evenodd" d="M33.4346 34.5506C33.392 34.2098 33.0086 33.9968 32.7103 33.9542C32.4547 33.9116 32.1991 33.9968 31.9861 34.1672C31.7731 34.295 31.5601 34.5506 31.6879 34.8489C31.7305 34.9341 31.8157 35.1471 31.9009 35.1897C32.0287 35.2749 32.2417 35.2323 32.3695 35.1897C32.6251 35.1471 32.7103 35.0619 32.8807 34.8915C33.0512 34.7637 33.4346 34.8489 33.4346 34.5506Z" fill="#E3D9D2"/>
<path opacity="0.5" fill-rule="evenodd" clip-rule="evenodd" d="M42.3385 29.4811C42.5515 29.5663 42.8497 29.9071 42.5515 30.0349C42.3811 30.1201 41.8698 29.9923 41.742 29.9071C41.1882 29.4811 42.0829 29.0976 42.4663 29.5663L42.3385 29.4811Z" fill="#E3D9D2"/>
<path opacity="0.5" fill-rule="evenodd" clip-rule="evenodd" d="M42.0829 32.2925C41.8699 31.9091 41.4865 32.3351 41.7421 32.5481C41.9125 32.6759 42.0829 32.5481 42.1255 32.3777L42.0829 32.2925Z" fill="#E3D9D2"/>
<path opacity="0.5" fill-rule="evenodd" clip-rule="evenodd" d="M41.5292 30.887C41.4014 30.6314 41.1458 30.9296 41.3162 31.0574C41.444 31.1426 41.5718 31.0574 41.5718 30.9296L41.5292 30.887Z" fill="#E3D9D2"/>
<path opacity="0.5" fill-rule="evenodd" clip-rule="evenodd" d="M18.0976 28.2452C18.4384 28.6713 17.842 29.2251 17.5864 28.6713C17.4586 28.373 17.7142 28.0322 17.9698 28.2452H18.0976Z" fill="#E3D9D2"/>
<path opacity="0.5" fill-rule="evenodd" clip-rule="evenodd" d="M17.1177 29.5235C17.1603 29.4382 17.2029 29.4808 17.2455 29.5235C17.3307 29.6087 17.2882 29.6513 17.203 29.6939C17.0751 29.8643 16.9899 29.8643 16.8195 29.7365C16.6917 29.6513 16.4787 29.3956 16.6917 29.3104C16.7769 29.2678 17.0325 29.353 17.0751 29.3956L17.1177 29.5235Z" fill="#E3D9D2"/>
<path opacity="0.5" fill-rule="evenodd" clip-rule="evenodd" d="M17.6292 29.6941C17.6718 29.4811 17.3309 29.7367 17.4587 29.8645C17.6292 29.9923 17.6718 29.7793 17.6292 29.6941Z" fill="#E3D9D2"/>
<path opacity="0.5" fill-rule="evenodd" clip-rule="evenodd" d="M16.9902 28.927C16.905 29.0548 16.692 28.8844 16.7772 28.7566C16.8624 28.6714 16.9902 28.8418 16.9902 28.927Z" fill="#E3D9D2"/>
<path opacity="0.5" fill-rule="evenodd" clip-rule="evenodd" d="M20.4837 31.526C20.4411 31.3556 20.2281 31.526 20.1855 31.6112C20.1429 31.7817 20.2707 31.9947 20.4411 31.9947C20.6967 32.0373 20.7819 31.6112 20.5263 31.526H20.4837Z" fill="#E3D9D2"/>
<path opacity="0.5" fill-rule="evenodd" clip-rule="evenodd" d="M18.0128 31.8666C18.1833 32.0796 17.6294 32.1648 17.6294 31.8666C17.6294 31.6962 17.9276 31.6962 18.0128 31.8666Z" fill="#E3D9D2"/>
<path opacity="0.5" fill-rule="evenodd" clip-rule="evenodd" d="M20.2278 27.3936C20.3557 27.2657 20.1852 27.0527 20.0148 27.0527C19.8018 27.0953 19.8018 27.3936 19.887 27.5214C20.0574 27.8622 20.4835 27.6066 20.3131 27.3083L20.2278 27.3936Z" fill="#E3D9D2"/>
<path opacity="0.5" fill-rule="evenodd" clip-rule="evenodd" d="M17.0327 26.712C17.2031 27.1806 16.4789 27.0102 16.4363 26.6268C16.3936 26.2007 16.9901 26.286 17.0327 26.712Z" fill="#E3D9D2"/>
<path opacity="0.5" fill-rule="evenodd" clip-rule="evenodd" d="M31.7307 33.656C32.0289 34.0821 31.2621 34.2525 31.1769 33.7412C31.3473 33.5282 31.6455 33.4856 31.8159 33.6986L31.7307 33.656Z" fill="#E3D9D2"/>
<path opacity="0.5" fill-rule="evenodd" clip-rule="evenodd" d="M35.8203 38.6403C35.1813 37.7882 33.9032 37.4474 32.966 38.0865C32.7104 38.2569 32.3695 38.5551 32.6678 38.8107C32.9234 39.0237 34.1162 38.8107 34.4144 38.8107C34.9257 38.8107 35.4369 38.8107 35.8203 38.6403Z" fill="#E3D9D2"/>
<path opacity="0.5" fill-rule="evenodd" clip-rule="evenodd" d="M38.1636 38.2146C38.121 38.598 37.4393 38.4702 37.5245 38.1294C37.6097 37.9164 37.9506 37.8738 38.0358 38.0868L38.1636 38.2146Z" fill="#E3D9D2"/>
<path opacity="0.5" fill-rule="evenodd" clip-rule="evenodd" d="M29.6431 38.3424C29.5153 37.7459 28.8762 38.6832 29.5153 38.598C29.5153 38.5554 29.5579 38.5128 29.5579 38.4702L29.6431 38.3424Z" fill="#E3D9D2"/>
<path opacity="0.5" fill-rule="evenodd" clip-rule="evenodd" d="M26.4904 30.0775C26.5756 30.5036 26.0644 30.4184 26.0644 30.0775C26.0644 29.8219 26.4052 29.6941 26.4904 29.9923V30.0775Z" fill="#E3D9D2"/>
<path opacity="0.5" fill-rule="evenodd" clip-rule="evenodd" d="M17.5865 33.5282C17.5439 33.443 17.5013 33.4004 17.4161 33.4004C17.1605 33.7412 17.7569 33.9968 17.5865 33.5708V33.5282Z" fill="#E3D9D2"/>
<path opacity="0.5" fill-rule="evenodd" clip-rule="evenodd" d="M36.1612 5.1551C36.8003 6.64618 34.0737 5.58112 33.6903 4.94209C33.2643 4.21785 34.3293 4.13265 34.9257 4.21785C35.5648 4.30306 36.1186 4.77168 36.1612 5.1551Z" fill="#E3D9D2"/>
<path opacity="0.5" fill-rule="evenodd" clip-rule="evenodd" d="M33.5625 5.49584C33.4773 5.15502 32.7957 4.89941 32.8809 5.36803C32.9235 5.66625 33.3921 5.83666 33.4773 5.53844L33.5625 5.49584Z" fill="#E3D9D2"/>
<path opacity="0.5" fill-rule="evenodd" clip-rule="evenodd" d="M19.7166 3.2381C20.3556 4.04754 17.6291 4.04754 17.5013 3.2381C17.3735 2.38606 19.5036 2.68427 19.8018 3.1955L19.7166 3.2381Z" fill="#E3D9D2"/>
<path opacity="0.5" fill-rule="evenodd" clip-rule="evenodd" d="M17.7998 2.30078C17.7572 1.78955 16.9478 2.00256 17.1182 2.34338C17.246 2.59899 17.672 2.42858 17.7998 2.25817V2.30078Z" fill="#E3D9D2"/>
<path opacity="0.5" fill-rule="evenodd" clip-rule="evenodd" d="M15.6696 2.89721C15.4139 2.89721 15.1583 2.8546 14.9453 2.7268C14.9879 2.25817 15.627 2.38598 15.7974 2.7268C15.7548 2.812 15.7122 2.7694 15.6696 2.812V2.89721Z" fill="#E3D9D2"/>
<path opacity="0.5" fill-rule="evenodd" clip-rule="evenodd" d="M22.9121 3.83435C22.9121 3.66394 22.8695 3.53613 22.6565 3.53613C22.4009 3.74914 22.4435 4.13256 22.8269 4.04736L22.9121 3.83435Z" fill="#E3D9D2"/>
<path opacity="0.5" fill-rule="evenodd" clip-rule="evenodd" d="M36.9707 33.8691C37.908 34.6786 35.9057 34.423 36.8003 33.9969L36.9707 33.8691Z" fill="#E3D9D2"/>
<path opacity="0.5" fill-rule="evenodd" clip-rule="evenodd" d="M40.9752 35.999C41.1883 36.2546 41.103 36.7233 40.7196 36.5529C40.4214 36.425 40.464 35.8712 40.8474 36.0416L40.9752 35.999Z" fill="#E3D9D2"/>
<path opacity="0.5" fill-rule="evenodd" clip-rule="evenodd" d="M39.1006 37.2772C39.0154 37.0215 38.7172 37.0215 38.7172 37.2772C38.7172 37.4902 38.9302 37.4902 39.0154 37.3198L39.1006 37.2772Z" fill="#E3D9D2"/>
<path opacity="0.5" fill-rule="evenodd" clip-rule="evenodd" d="M26.2773 25.9877C26.1921 25.9451 26.1069 25.8599 26.0643 25.7746C26.2347 25.6468 26.2347 25.732 26.2773 25.8599V25.9877Z" fill="#E3D9D2"/>
</g>
<path fill-rule="evenodd" clip-rule="evenodd" d="M14.9023 43.3691L13.9225 24.9224C13.9225 24.9224 13.5391 38.3421 14.9023 43.3691Z" fill="#DF7668"/>
<path fill-rule="evenodd" clip-rule="evenodd" d="M12.8999 20.1934L12.2183 20.662L11.6644 20.1934H12.8999Z" fill="#FFDB92"/>
<path fill-rule="evenodd" clip-rule="evenodd" d="M12.3892 4.38818L11.6649 4.94201L11.1537 3.53613L12.3892 4.38818Z" fill="#DF7668"/>
<path d="M18.9435 12.7497H22.3378C23.059 5.19746 29.4233 0 37.1664 0C39.0333 0 40.794 0.339426 42.4487 0.954635C37.7604 3.24576 34.451 7.23401 34.1116 12.7073H37.5058C38.6302 12.7073 38.906 13.3437 38.0786 14.1286L29.7627 22.1263C28.9353 22.9112 27.5989 22.9112 26.7715 22.1475L18.3707 14.1922C17.5646 13.3861 17.8191 12.7497 18.9435 12.7497Z" fill="url(#paint10_linear_59_2744)"/>
<path d="M18.7528 13.6193L27.1536 21.5746C27.79 22.1685 28.8083 22.1685 29.4235 21.5746L37.7394 13.5768C37.7606 13.5556 37.7818 13.5344 37.803 13.5132C37.9515 13.5344 38.0152 13.5768 38.0576 13.598C38.0364 13.6617 37.9728 13.8102 37.7394 14.0435L29.4235 22.0413C28.8083 22.6353 27.79 22.6565 27.1536 22.0413L18.7528 14.086C18.5194 13.8526 18.4558 13.7041 18.4346 13.6405C18.4558 13.6193 18.5406 13.5768 18.6891 13.5556C18.7103 13.5768 18.7316 13.598 18.7528 13.6193Z" fill="#7BD2F6"/>
<defs>
<radialGradient id="paint0_radial_59_2744" cx="0" cy="0" r="1" gradientUnits="userSpaceOnUse" gradientTransform="translate(39.5645 25.9595) rotate(180) scale(19.4797)">
<stop offset="0.0223464" stop-color="#AC484D"/>
<stop offset="1" stop-color="#9F3E54"/>
</radialGradient>
<radialGradient id="paint1_radial_59_2744" cx="0" cy="0" r="1" gradientUnits="userSpaceOnUse" gradientTransform="translate(30.478 24.6058) rotate(180) scale(13.785)">
<stop offset="0.0223464" stop-color="#FFA874"/>
<stop offset="1" stop-color="#F49372"/>
</radialGradient>
<radialGradient id="paint2_radial_59_2744" cx="0" cy="0" r="1" gradientUnits="userSpaceOnUse" gradientTransform="translate(7.73479 20.4329) rotate(180) scale(13.2224)">
<stop offset="0.0223464" stop-color="#BD4D4D"/>
<stop offset="1" stop-color="#9F3E54"/>
</radialGradient>
<radialGradient id="paint3_radial_59_2744" cx="0" cy="0" r="1" gradientUnits="userSpaceOnUse" gradientTransform="translate(23.803 18.9924) rotate(180) scale(13.1732)">
<stop stop-color="#FFCF84"/>
<stop offset="0.9777" stop-color="#FFB88B"/>
</radialGradient>
<radialGradient id="paint4_radial_59_2744" cx="0" cy="0" r="1" gradientUnits="userSpaceOnUse" gradientTransform="translate(47.8543 19.6719) rotate(180) scale(2.19708)">
<stop offset="0.0223464" stop-color="#FFA874"/>
<stop offset="1" stop-color="#F49372"/>
</radialGradient>
<radialGradient id="paint5_radial_59_2744" cx="0" cy="0" r="1" gradientUnits="userSpaceOnUse" gradientTransform="translate(22.7066 0.374601) rotate(180) scale(9.33061)">
<stop offset="0.0223464" stop-color="#FFA874"/>
<stop offset="1" stop-color="#F49372"/>
</radialGradient>
<radialGradient id="paint6_radial_59_2744" cx="0" cy="0" r="1" gradientUnits="userSpaceOnUse" gradientTransform="translate(6.42415 15.3316) rotate(180) scale(4.47924)">
<stop stop-color="#FFCF84"/>
<stop offset="0.9777" stop-color="#FFB88B"/>
</radialGradient>
<radialGradient id="paint7_radial_59_2744" cx="0" cy="0" r="1" gradientUnits="userSpaceOnUse" gradientTransform="translate(13.1311 20.4528) rotate(180) scale(2.53491)">
<stop offset="0.0223464" stop-color="#FFA874"/>
<stop offset="1" stop-color="#F49372"/>
</radialGradient>
<linearGradient id="paint8_linear_59_2744" x1="45.9815" y1="41.6451" x2="14.9068" y2="41.6451" gradientUnits="userSpaceOnUse">
<stop stop-color="#D3B8D6"/>
<stop offset="1" stop-color="white"/>
</linearGradient>
<linearGradient id="paint9_linear_59_2744" x1="38.6423" y1="3.94881" x2="22.7982" y2="3.94881" gradientUnits="userSpaceOnUse">
<stop stop-color="#D3B8D6"/>
<stop offset="1" stop-color="white"/>
</linearGradient>
<linearGradient id="paint10_linear_59_2744" x1="29.9128" y1="22.6784" x2="30.3672" y2="-3.49444" gradientUnits="userSpaceOnUse">
<stop stop-color="#23AF72"/>
<stop offset="1" stop-color="#30DA88"/>
</linearGradient>
</defs>
</svg>
