<svg width="16" height="14" viewBox="0 0 16 14" fill="none" xmlns="http://www.w3.org/2000/svg">
<path d="M0.75 0C0.335786 0 0 0.335786 0 0.75C0 1.16421 0.335786 1.5 0.75 1.5H14.75C15.1642 1.5 15.5 1.16421 15.5 0.75C15.5 0.335786 15.1642 0 14.75 0H0.75Z" fill="#31353B"/>
<path d="M3.75 6C3.33579 6 3 6.33579 3 6.75C3 7.16421 3.33579 7.5 3.75 7.5H11.75C12.1642 7.5 12.5 7.16421 12.5 6.75C12.5 6.33579 12.1642 6 11.75 6H3.75Z" fill="#31353B"/>
<path d="M5.75 12C5.33579 12 5 12.3358 5 12.75C5 13.1642 5.33579 13.5 5.75 13.5H9.75C10.1642 13.5 10.5 13.1642 10.5 12.75C10.5 12.3358 10.1642 12 9.75 12H5.75Z" fill="#31353B"/>
</svg>
