<svg width="28" height="27" viewBox="0 0 28 27" fill="none" xmlns="http://www.w3.org/2000/svg">
<path d="M14 11C15.1046 11 16 11.8954 16 13C16 14.1046 15.1046 15 14 15C12.8954 15 12 14.1046 12 13C12 11.8954 12.8954 11 14 11Z" fill="#017EFA"/>
<path d="M6 11C7.10457 11 8 11.8954 8 13C8 14.1046 7.10457 15 6 15C4.89543 15 4 14.1046 4 13C4 11.8954 4.89543 11 6 11Z" fill="#017EFA"/>
<path d="M22 11C23.1046 11 24 11.8954 24 13C24 14.1046 23.1046 15 22 15C20.8954 15 20 14.1046 20 13C20 11.8954 20.8954 11 22 11Z" fill="#017EFA"/>
</svg>
