<svg width="16" height="20" viewBox="0 0 16 20" fill="none" xmlns="http://www.w3.org/2000/svg">
<path d="M13.8655 10.7015L14.6084 10.8049L13.8655 10.7015ZM13.6294 12.3981L14.3723 12.5014L13.6294 12.3981ZM2.37067 12.3981L3.11351 12.2947L2.37067 12.3981ZM2.13457 10.7015L1.39173 10.8049L2.13457 10.7015ZM5.46533 18.7631L5.17374 19.4541L5.46533 18.7631ZM3.02762 15.9043L3.73161 15.6456L3.02762 15.9043ZM12.9725 15.9043L13.6765 16.1629L13.6765 16.1629L12.9725 15.9043ZM10.5348 18.7631L10.2432 18.0722L10.5348 18.7631ZM2.44669 7.22906C2.40751 6.8167 2.04147 6.51418 1.62911 6.55336C1.21675 6.59254 0.914232 6.95858 0.953411 7.37094L2.44669 7.22906ZM15.0467 7.37094C15.0859 6.95858 14.7833 6.59254 14.371 6.55336C13.9586 6.51418 13.5926 6.8167 13.5534 7.22906L15.0467 7.37094ZM15.2 6.25C15.6143 6.25 15.95 5.91421 15.95 5.5C15.95 5.08579 15.6143 4.75 15.2 4.75V6.25ZM0.800049 4.75C0.385835 4.75 0.0500488 5.08579 0.0500488 5.5C0.0500488 5.91421 0.385835 6.25 0.800049 6.25V4.75ZM5.45005 15.4C5.45005 15.8142 5.78584 16.15 6.20005 16.15C6.61426 16.15 6.95005 15.8142 6.95005 15.4H5.45005ZM6.95005 8.2C6.95005 7.78579 6.61426 7.45 6.20005 7.45C5.78584 7.45 5.45005 7.78579 5.45005 8.2H6.95005ZM9.05005 15.4C9.05005 15.8142 9.38584 16.15 9.80005 16.15C10.2143 16.15 10.55 15.8142 10.55 15.4H9.05005ZM10.55 8.2C10.55 7.78579 10.2143 7.45 9.80005 7.45C9.38584 7.45 9.05005 7.78579 9.05005 8.2H10.55ZM11.6 5.5V6.25H12.35V5.5H11.6ZM4.40005 5.5H3.65005V6.25H4.40005V5.5ZM13.1227 10.5982L12.8866 12.2947L14.3723 12.5014L14.6084 10.8049L13.1227 10.5982ZM3.11351 12.2947L2.87741 10.5982L1.39173 10.8049L1.62783 12.5015L3.11351 12.2947ZM8.00005 18.25C6.61706 18.25 6.14476 18.2358 5.75692 18.0722L5.17374 19.4541C5.90846 19.7642 6.7518 19.75 8.00005 19.75V18.25ZM1.62783 12.5015C1.87902 14.3064 2.01683 15.3279 2.32363 16.1629L3.73161 15.6456C3.49433 14.9998 3.37553 14.1774 3.11351 12.2947L1.62783 12.5015ZM5.75692 18.0722C4.9511 17.7321 4.19098 16.8959 3.73161 15.6456L2.32363 16.1629C2.88172 17.6819 3.88036 18.9084 5.17374 19.4541L5.75692 18.0722ZM12.8866 12.2947C12.6246 14.1774 12.5058 14.9998 12.2685 15.6456L13.6765 16.1629C13.9833 15.3279 14.1211 14.3064 14.3723 12.5014L12.8866 12.2947ZM8.00005 19.75C9.24829 19.75 10.0916 19.7642 10.8264 19.4541L10.2432 18.0722C9.85534 18.2358 9.38304 18.25 8.00005 18.25V19.75ZM12.2685 15.6456C11.8091 16.8959 11.049 17.7321 10.2432 18.0722L10.8264 19.4541C12.1197 18.9084 13.1184 17.6819 13.6765 16.1629L12.2685 15.6456ZM2.87741 10.5982C2.67741 9.16105 2.52841 8.08923 2.44669 7.22906L0.953411 7.37094C1.03894 8.27117 1.1935 9.38057 1.39173 10.8049L2.87741 10.5982ZM14.6084 10.8049C14.8066 9.38057 14.9612 8.27116 15.0467 7.37094L13.5534 7.22906C13.4717 8.08922 13.3227 9.16105 13.1227 10.5982L14.6084 10.8049ZM15.2 4.75H0.800049V6.25H15.2V4.75ZM6.95005 15.4V8.2H5.45005V15.4H6.95005ZM10.55 15.4V8.2H9.05005V15.4H10.55ZM10.85 4.6V5.5H12.35V4.6H10.85ZM11.6 4.75H4.40005V6.25H11.6V4.75ZM5.15005 5.5V4.6H3.65005V5.5H5.15005ZM8.00005 1.75C9.57406 1.75 10.85 3.02599 10.85 4.6H12.35C12.35 2.19756 10.4025 0.25 8.00005 0.25V1.75ZM8.00005 0.25C5.59761 0.25 3.65005 2.19756 3.65005 4.6H5.15005C5.15005 3.02599 6.42604 1.75 8.00005 1.75V0.25Z" fill="#BD1E1E" fill-opacity="0.6"/>
</svg>
