<svg width="24" height="20" viewBox="0 0 24 20" fill="none" xmlns="http://www.w3.org/2000/svg">
<path d="M14.75 0C14.3358 0 14 0.335786 14 0.75C14 1.16421 14.3358 1.5 14.75 1.5H15.75C18.0972 1.5 20 3.40279 20 5.75V6.75C20 7.16421 20.3358 7.5 20.75 7.5C21.1642 7.5 21.5 7.16421 21.5 6.75V5.75C21.5 2.57436 18.9256 0 15.75 0H14.75Z" fill="#017EFA"/>
<path d="M7.75 0C4.57436 0 2 2.57436 2 5.75V6.75C2 7.16421 2.33579 7.5 2.75 7.5C3.16421 7.5 3.5 7.16421 3.5 6.75V5.75C3.5 3.40279 5.40279 1.5 7.75 1.5H8.75C9.16421 1.5 9.5 1.16421 9.5 0.75C9.5 0.335787 9.16421 0 8.75 0H7.75Z" fill="#017EFA"/>
<path d="M0.75 9C0.335786 9 0 9.33579 0 9.75C0 10.1642 0.335786 10.5 0.75 10.5H22.75C23.1642 10.5 23.5 10.1642 23.5 9.75C23.5 9.33579 23.1642 9 22.75 9H0.75Z" fill="#017EFA"/>
<path d="M3.5 12.75C3.5 12.3358 3.16421 12 2.75 12C2.33579 12 2 12.3358 2 12.75V13.75C2 16.9256 4.57436 19.5 7.75 19.5H8.75C9.16421 19.5 9.5 19.1642 9.5 18.75C9.5 18.3358 9.16421 18 8.75 18H7.75C5.40279 18 3.5 16.0972 3.5 13.75V12.75Z" fill="#017EFA"/>
<path d="M21.5 12.75C21.5 12.3358 21.1642 12 20.75 12C20.3358 12 20 12.3358 20 12.75V13.75C20 16.0972 18.0972 18 15.75 18H14.75C14.3358 18 14 18.3358 14 18.75C14 19.1642 14.3358 19.5 14.75 19.5H15.75C18.9256 19.5 21.5 16.9256 21.5 13.75V12.75Z" fill="#017EFA"/>
</svg>
