<svg width="24" height="20" viewBox="0 0 24 20" fill="none" xmlns="http://www.w3.org/2000/svg">
<path d="M15 0C14.5858 0 14.25 0.335786 14.25 0.75C14.25 1.16421 14.5858 1.5 15 1.5H16C18.3472 1.5 20.25 3.40279 20.25 5.75V6.75C20.25 7.16421 20.5858 7.5 21 7.5C21.4142 7.5 21.75 7.16421 21.75 6.75V5.75C21.75 2.57436 19.1756 0 16 0H15Z" fill="white"/>
<path d="M8 0C4.82436 0 2.25 2.57436 2.25 5.75V6.75C2.25 7.16421 2.58579 7.5 3 7.5C3.41421 7.5 3.75 7.16421 3.75 6.75V5.75C3.75 3.40279 5.65279 1.5 8 1.5H9C9.41421 1.5 9.75 1.16421 9.75 0.75C9.75 0.335787 9.41421 0 9 0H8Z" fill="white"/>
<path d="M1 9C0.585786 9 0.25 9.33579 0.25 9.75C0.25 10.1642 0.585786 10.5 1 10.5H23C23.4142 10.5 23.75 10.1642 23.75 9.75C23.75 9.33579 23.4142 9 23 9H1Z" fill="white"/>
<path d="M3.75 12.75C3.75 12.3358 3.41421 12 3 12C2.58579 12 2.25 12.3358 2.25 12.75V13.75C2.25 16.9256 4.82436 19.5 8 19.5H9C9.41421 19.5 9.75 19.1642 9.75 18.75C9.75 18.3358 9.41421 18 9 18H8C5.65279 18 3.75 16.0972 3.75 13.75V12.75Z" fill="white"/>
<path d="M21.75 12.75C21.75 12.3358 21.4142 12 21 12C20.5858 12 20.25 12.3358 20.25 12.75V13.75C20.25 16.0972 18.3472 18 16 18H15C14.5858 18 14.25 18.3358 14.25 18.75C14.25 19.1642 14.5858 19.5 15 19.5H16C19.1756 19.5 21.75 16.9256 21.75 13.75V12.75Z" fill="white"/>
</svg>
