<svg width="25" height="20" viewBox="0 0 25 20" fill="none" xmlns="http://www.w3.org/2000/svg">
<path d="M15.5 0C15.0858 0 14.75 0.335786 14.75 0.75C14.75 1.16421 15.0858 1.5 15.5 1.5H16.5C18.8472 1.5 20.75 3.40279 20.75 5.75V6.75C20.75 7.16421 21.0858 7.5 21.5 7.5C21.9142 7.5 22.25 7.16421 22.25 6.75V5.75C22.25 2.57436 19.6756 0 16.5 0H15.5Z" fill="white"/>
<path d="M8.5 0C5.32436 0 2.75 2.57436 2.75 5.75V6.75C2.75 7.16421 3.08579 7.5 3.5 7.5C3.91421 7.5 4.25 7.16421 4.25 6.75V5.75C4.25 3.40279 6.15279 1.5 8.5 1.5H9.5C9.91421 1.5 10.25 1.16421 10.25 0.75C10.25 0.335787 9.91421 0 9.5 0H8.5Z" fill="white"/>
<path d="M1.5 9C1.08579 9 0.75 9.33579 0.75 9.75C0.75 10.1642 1.08579 10.5 1.5 10.5H23.5C23.9142 10.5 24.25 10.1642 24.25 9.75C24.25 9.33579 23.9142 9 23.5 9H1.5Z" fill="white"/>
<path d="M4.25 12.75C4.25 12.3358 3.91421 12 3.5 12C3.08579 12 2.75 12.3358 2.75 12.75V13.75C2.75 16.9256 5.32436 19.5 8.5 19.5H9.5C9.91421 19.5 10.25 19.1642 10.25 18.75C10.25 18.3358 9.91421 18 9.5 18H8.5C6.15279 18 4.25 16.0972 4.25 13.75V12.75Z" fill="white"/>
<path d="M22.25 12.75C22.25 12.3358 21.9142 12 21.5 12C21.0858 12 20.75 12.3358 20.75 12.75V13.75C20.75 16.0972 18.8472 18 16.5 18H15.5C15.0858 18 14.75 18.3358 14.75 18.75C14.75 19.1642 15.0858 19.5 15.5 19.5H16.5C19.6756 19.5 22.25 16.9256 22.25 13.75V12.75Z" fill="white"/>
</svg>
