<svg width="21" height="4" viewBox="0 0 21 4" fill="none" xmlns="http://www.w3.org/2000/svg">
<path d="M10.2208 0C11.3254 -4.82823e-08 12.2208 0.89543 12.2208 2C12.2208 3.10457 11.3254 4 10.2208 4C9.11626 4 8.22083 3.10457 8.22083 2C8.22083 0.895431 9.11626 4.82823e-08 10.2208 0Z" fill="#017EFA"/>
<path d="M2.22083 0C3.32539 -4.82823e-08 4.22083 0.89543 4.22083 2C4.22083 3.10457 3.32539 4 2.22083 4C1.11626 4 0.220825 3.10457 0.220825 2C0.220825 0.895431 1.11626 4.82823e-08 2.22083 0Z" fill="#017EFA"/>
<path d="M18.2208 0C19.3254 -4.82823e-08 20.2208 0.89543 20.2208 2C20.2208 3.10457 19.3254 4 18.2208 4C17.1163 4 16.2208 3.10457 16.2208 2C16.2208 0.895431 17.1163 4.82823e-08 18.2208 0Z" fill="#017EFA"/>
</svg>
