<svg width="30" height="30" viewBox="0 0 30 30" fill="none" xmlns="http://www.w3.org/2000/svg">
<path d="M9.37402 13.75C10.4096 13.75 11.249 12.9105 11.249 11.875C11.249 10.8395 10.4096 10 9.37402 10C8.33849 10 7.49902 10.8395 7.49902 11.875C7.49902 12.9105 8.33849 13.75 9.37402 13.75Z" fill="#57A4F0"/>
<path d="M13.124 17.5L11.249 15L7.49902 20H22.499L16.874 12.5L13.124 17.5Z" fill="#57A4F0"/>
<path d="M24.999 5H4.99902C3.62027 5 2.49902 6.12125 2.49902 7.5V22.5C2.49902 23.8788 3.62027 25 4.99902 25H24.999C26.3778 25 27.499 23.8788 27.499 22.5V7.5C27.499 6.12125 26.3778 5 24.999 5ZM4.99902 22.5V7.5H24.999L25.0015 22.5H4.99902V22.5Z" fill="#57A4F0"/>
</svg>
