<svg width="17" height="17" viewBox="0 0 17 17" fill="none" xmlns="http://www.w3.org/2000/svg">
<path fill-rule="evenodd" clip-rule="evenodd" d="M7.36665 0C3.29816 0 0 3.29816 0 7.36665C0 11.4351 3.29816 14.7333 7.36665 14.7333C11.4351 14.7333 14.7333 11.4351 14.7333 7.36665C14.7333 3.29816 11.4351 0 7.36665 0ZM1.13333 7.36665C1.13333 3.92408 3.92408 1.13333 7.36665 1.13333C10.8092 1.13333 13.6 3.92408 13.6 7.36665C13.6 10.8092 10.8092 13.6 7.36665 13.6C3.92408 13.6 1.13333 10.8092 1.13333 7.36665Z" fill="#017EFA"/>
<path d="M13.8118 13.0105C13.5905 12.7892 13.2317 12.7892 13.0104 13.0105C12.7891 13.2318 12.7891 13.5905 13.0104 13.8118L16.0326 16.834C16.2539 17.0553 16.6127 17.0553 16.834 16.834C17.0553 16.6127 17.0553 16.2539 16.834 16.0326L13.8118 13.0105Z" fill="#017EFA"/>
</svg>
